<mxfile host="app.diagrams.net" modified="2021-09-01T06:28:25.466Z" agent="5.0 (Macintosh; Intel Mac OS X 10_15_7) AppleWebKit/537.36 (KHTML, like Gecko) Chrome/92.0.4515.159 Safari/537.36" etag="L80w4PXXwdx_HGFYddMh" version="15.0.4" type="github">
  <diagram id="V-fdTvenfF2xQfSrzhiC" name="第 1 页">
    <mxGraphModel dx="1426" dy="794" grid="1" gridSize="10" guides="1" tooltips="1" connect="1" arrows="1" fold="1" page="1" pageScale="1" pageWidth="827" pageHeight="1169" math="0" shadow="0">
      <root>
        <mxCell id="0" />
        <mxCell id="1" parent="0" />
        <mxCell id="N-X1dyFdkPg3Ts0fUPBi-1" value="" style="ellipse;whiteSpace=wrap;html=1;aspect=fixed;" parent="1" vertex="1">
          <mxGeometry x="189" y="130" width="460" height="460" as="geometry" />
        </mxCell>
        <mxCell id="N-X1dyFdkPg3Ts0fUPBi-2" value="node1&lt;br&gt;" style="outlineConnect=0;dashed=0;verticalLabelPosition=bottom;verticalAlign=top;align=center;html=1;shape=mxgraph.aws3.cache_node;fillColor=#2E73B8;gradientColor=none;" parent="1" vertex="1">
          <mxGeometry x="389" y="90" width="60" height="63" as="geometry" />
        </mxCell>
        <mxCell id="N-X1dyFdkPg3Ts0fUPBi-3" value="node2&lt;br&gt;" style="outlineConnect=0;dashed=0;verticalLabelPosition=bottom;verticalAlign=top;align=center;html=1;shape=mxgraph.aws3.cache_node;fillColor=#2E73B8;gradientColor=none;" parent="1" vertex="1">
          <mxGeometry x="609" y="400" width="60" height="63" as="geometry" />
        </mxCell>
        <mxCell id="N-X1dyFdkPg3Ts0fUPBi-4" value="node2&lt;br&gt;" style="outlineConnect=0;dashed=0;verticalLabelPosition=bottom;verticalAlign=top;align=center;html=1;shape=mxgraph.aws3.cache_node;fillColor=#2E73B8;gradientColor=none;" parent="1" vertex="1">
          <mxGeometry x="159" y="400" width="60" height="63" as="geometry" />
        </mxCell>
      </root>
    </mxGraphModel>
  </diagram>
</mxfile>
